<?xml version="1.0" ?><!DOCTYPE svg  PUBLIC '-//W3C//DTD SVG 1.1//EN'  'http://www.w3.org/Graphics/SVG/1.1/DTD/svg11.dtd'><svg enable-background="new 0 0 512 512" height="512px" id="Build" version="1.1" viewBox="0 0 512 512" width="512px" xml:space="preserve" xmlns="http://www.w3.org/2000/svg" xmlns:xlink="http://www.w3.org/1999/xlink"><circle cx="256" cy="256" fill="#51A8B1" id="Background" r="256"/><g id="Build_1_"><g><polygon fill="#FFCC99" points="359.841,184.569 345.436,168.665 376.348,152.761   "/><path d="M359.841,184.569l-14.405-15.904l2.401-1.201c1.498-0.301,3.899-0.301,5.401,0    c1.8,0.904,0,5.703,0.899,7.205c0.9,1.498,5.703-0.301,7.201,0.301c0.603,0.297,0.302,4.201-0.297,7.201L359.841,184.569z" fill="#FFCC99"/><polygon fill="#4D4D4D" points="369.143,156.661 376.348,152.761 372.443,159.962   "/><path d="M359.841,184.569L167.766,376.648c-9.904,9.904-24.912-5.401-15.004-15.31l192.674-192.674    c2.698,1.201,6.301-0.297,6.903,0.599c0.899,0.603-1.201,5.406,0.599,6.904c1.799,1.799,7.205-0.9,7.205,0.603    C359.841,178.268,359.841,181.272,359.841,184.569z" fill="#E6B800"/><path d="M352.339,171.666c0,1.803-0.301,3.602,0.599,4.502c0.899,0.904,3,0.603,4.803,0.301L175.268,358.941    l-4.799-5.104L352.339,171.666z" fill="#FFCC00"/><path d="M359.841,184.569L180.368,363.74l-5.101-4.799L357.74,176.469c1.201-0.301,2.402-0.301,2.402,0.301    C359.841,178.268,359.841,181.272,359.841,184.569z" fill="#E6B800"/><polygon fill="#CFA600" points="180.368,363.74 174.971,369.143 159.962,354.138 165.364,348.736   "/><path d="M174.971,369.143l-7.205,7.506c-9.904,9.904-24.912-5.401-15.004-15.31l7.201-7.201L174.971,369.143z" fill="#CC3300"/></g><g><rect fill="#FED267" height="25.543" transform="matrix(-0.8272 -0.5619 0.5619 -0.8272 330.7453 634.2688)" width="307.647" x="109.068" y="253.511"/><polygon fill="#E5BD5D" points="135.653,179.77 390.15,352.636 382.95,363.143 128.452,190.276   "/></g><g><path d="M229.781,173.009l-61.739,90.896c-4.005,5.895-10.673,8.341-14.898,5.471l-34.405-23.369    c-4.229-2.87-4.413-9.973-0.407-15.863l61.739-90.9c4.001-5.89,10.669-8.341,14.898-5.471l34.404,23.37    C233.6,160.011,233.783,167.114,229.781,173.009z" fill="#4D4D4D"/><path d="M135.954,257.799l-17.109-11.703c-4.201-3-5.402-8.703-2.699-12.908l66.025-96.938    c2.699-4.201,8.703-5.399,12.904-2.401l17.109,11.707L135.954,257.799z" fill="#454545"/></g><path d="M208.879,72.329c1.803-0.301,3.305,0.6,3.903,2.401c0.301,1.5-0.598,3.301-2.397,3.601l-0.301,0.301   l-0.903,0.299l-1.197,0.299l-1.205,0.301l-0.896,0.299l-1.205,0.301l0,0c-1.799,0.299-3.297-0.601-3.899-2.101   c-0.603-1.801,0.301-3.603,2.101-3.901l0,0l1.201-0.301l1.201-0.299l1.201-0.301l0.9-0.299l1.201-0.301L208.879,72.329z    M184.87,80.431c1.804-0.9,3.603,0,4.201,1.502c0.603,1.799-0.297,3.601-1.799,4.201h-0.598l-0.9,0.601l-1.205,0.299l-0.896,0.6   l-1.205,0.301l-0.896,0.601c-1.502,0.598-3.305,0-3.904-1.801c-0.899-1.5,0-3.301,1.502-3.902l0.9-0.6l1.201-0.299l0.899-0.601   l1.201-0.301l0.899-0.6H184.87z M162.364,91.236c1.502-0.901,3.301-0.301,4.201,1.199c0.899,1.502,0.301,3.301-1.201,4.203   l-0.603,0.299l-0.896,0.601l-0.904,0.601l-1.197,0.6l-0.904,0.601l-0.899,0.601c-1.502,0.899-3.301,0.299-4.201-1.201   c-0.9-1.5-0.301-3.301,0.899-4.201l1.201-0.601l0.9-0.6l0.903-0.601l0.896-0.601l1.205-0.6L162.364,91.236z M141.054,105.341   c1.502-1.201,3.301-0.899,4.502,0.601c0.903,1.201,0.903,3.301-0.603,4.201l-0.297,0.301l-0.899,0.601l-0.904,0.899l-0.896,0.601   l-0.904,0.601l-0.899,0.899l0,0c-1.201,0.902-3.301,0.902-4.502-0.601c-0.9-1.199-0.9-3.301,0.598-4.201v-0.301l0.904-0.598   l0.899-0.601l0.9-0.902l0.899-0.6l0.9-0.601L141.054,105.341z M122.15,121.847c1.197-1.201,3.297-1.201,4.498,0   c1.201,1.201,1.201,3.301,0,4.502h-0.297l-0.603,0.899l-0.9,0.601l-0.899,0.901l-0.603,0.899l-0.899,0.601v0.299   c-1.201,1.5-3.301,1.5-4.502,0.301c-1.201-1.201-1.502-3.301-0.297-4.502l0.297-0.299l0.899-0.902l0.904-0.6l0.598-0.9l0.9-0.899   l0.602-0.601L122.15,121.847z M105.339,140.753c1.205-1.197,3.004-1.498,4.502-0.599c1.502,1.201,1.502,3,0.603,4.502l-0.603,0.9   l-0.598,0.899l-0.899,0.899l-0.603,0.904l-0.599,0.9l-0.301,0.297c-0.899,1.502-3,1.803-4.502,0.904   c-1.201-1.201-1.502-3.004-0.598-4.502l0.301-0.301l0.598-1.201l0.899-0.899l0.603-0.899l0.599-0.9L105.339,140.753z    M91.536,161.766c0.899-1.502,2.699-1.803,4.201-1.205c1.502,0.904,2.104,3.004,1.201,4.502l-0.602,0.602l-0.599,1.201   l-0.297,0.899l-0.603,0.899l-0.603,0.9l-0.297,0.603c-0.899,1.799-2.699,2.1-4.205,1.498c-1.498-0.9-2.101-2.699-1.197-4.201   l0.301-0.598l0.598-1.201l0.599-0.903l0.301-0.896l0.602-1.205L91.536,161.766z M80.431,184.569   c0.598-1.498,2.401-2.398,3.903-1.799c1.799,0.603,2.402,2.401,1.799,4.201l-0.301,0.904l-0.301,0.899l-0.598,1.201l-0.297,0.899   l-0.301,1.201l-0.301,0.603c-0.602,1.498-2.401,2.397-3.899,1.799c-1.803-0.603-2.703-2.402-2.101-3.9l0.297-0.903l0.301-0.9   l0.598-1.201l0.301-0.899l0.603-1.201L80.431,184.569z M72.326,208.582c0.603-1.803,2.402-2.699,3.904-2.402   c1.803,0.599,2.699,2.402,2.402,3.904l-0.301,0.301l-0.297,0.896v1.205l-0.301,1.197l-0.301,0.904l-0.301,1.196v0.301   c-0.301,1.502-2.101,2.703-3.9,2.402c-1.502-0.603-2.703-2.101-2.1-3.899v-0.301l0.301-0.904l0.297-1.197v-1.201l0.297-1.201   L72.326,208.582L72.326,208.582z M67.824,233.49c0.301-1.799,1.803-3,3.306-2.699c1.799,0,3,1.502,3,3.301l-0.301,0.9v1.201   l-0.297,1.201v1.201v1.197l-0.301,0.301c0,1.803-1.502,3.004-3.305,3.004c-1.498-0.301-2.996-1.799-2.699-3.305v-0.599v-1.201   l0.301-1.197v-1.205l0.297-1.197V233.49z M66.627,258.703c-0.301-1.804,1.197-3.306,3-3.306c1.502,0,3,1.502,3,3.004v1.201v1.201   v1.2l0.301,1.197v1.2v0.302c0,1.502-1.201,3-3.004,3.301c-1.799,0-3.297-1.502-3.297-3v-0.301v-1.201v-1.2v-1.201v-1.201V258.703z    M68.427,283.611c-0.301-1.503,0.899-3,2.703-3.302c1.799-0.301,3.297,0.899,3.598,2.401v0.302v0.899l0.301,1.201v1.196   l0.301,1.201l0.301,0.903v0.599c0.297,1.502-0.904,3.301-2.402,3.603c-1.799,0.301-3.305-0.899-3.603-2.703l-0.301-0.297v-1.201   l-0.297-1.201l-0.301-1.2v-1.201l-0.301-0.899V283.611z M73.829,308.519c-0.599-1.799,0.301-3.301,2.1-3.899   c1.502-0.603,3.301,0.599,3.904,2.101v0.599l0.301,1.2l0.599,0.904l0.297,1.196l0.301,1.201l0.301,0.903   c0.301,1.498-0.301,3.302-2.101,3.899c-1.498,0.302-3.301-0.598-3.899-2.1l-0.301-0.9l-0.301-1.2l-0.301-1.201l-0.301-0.899   l-0.297-1.201L73.829,308.519z M82.234,332.23c-0.603-1.502,0.297-3.302,1.799-4.201c1.498-0.603,3.301,0,3.9,1.799l0.603,0.603   l0.301,1.197l0.598,0.903l0.297,0.899l0.603,1.201l0.301,0.599c0.603,1.502,0,3.301-1.502,4.2c-1.502,0.603-3.301,0-4.201-1.498   l-0.297-0.603l-0.603-1.2l-0.301-0.899l-0.603-1.201l-0.297-0.899L82.234,332.23z M93.937,354.736   c-0.899-1.498-0.301-3.599,1.201-4.498c1.498-0.903,3.301-0.301,4.201,1.201l0.603,0.599l0.297,0.899l0.599,0.899l0.603,1.201   l0.603,0.899l0.598,0.603c0.899,1.502,0.599,3.301-0.899,4.2c-1.502,0.9-3.301,0.599-4.201-0.899l-0.603-0.603l-0.602-0.899   l-0.599-0.899l-0.598-1.201l-0.603-0.899L93.937,354.736z M108.645,375.146c-1.205-1.201-0.904-3.302,0.301-4.201   c1.498-1.2,3.297-0.899,4.498,0.302l0.301,0.598l0.9,0.9l0.602,0.899l0.599,0.903l0.899,0.599l0.603,0.899   c1.197,1.201,0.9,3.302-0.301,4.502c-1.201,0.899-3.301,0.899-4.502-0.598l-0.603-0.603l-0.598-0.9l-0.9-0.899l-0.603-0.899   l-0.896-0.903L108.645,375.146z M125.749,393.753c-1.201-1.2-1.201-3,0-4.502c0.899-1.201,3.004-1.201,4.201,0l0.301,0.302   l0.899,0.899l0.9,0.603l0.603,0.598l0.899,0.9l0.9,0.602v0.298c1.502,1.2,1.502,3.004,0.301,4.205   c-1.201,1.498-3.004,1.498-4.201,0.297h-0.301l-0.899-0.899l-0.9-0.599l-0.602-0.899l-0.9-0.603l-0.899-0.899L125.749,393.753z    M145.255,409.958c-1.498-1.196-1.799-3-0.9-4.498c1.201-1.2,3-1.502,4.502-0.603l0,0l0.899,0.603l0.904,0.899l0.896,0.599   l0.904,0.603l1.201,0.599l0.297,0.301c1.205,0.899,1.804,2.699,0.603,4.201c-0.899,1.502-2.703,1.799-4.201,0.899l-0.301-0.301   l-0.899-0.599l-0.9-0.599l-0.904-0.603l-1.196-0.899L145.255,409.958L145.255,409.958z M166.565,423.163   c-1.502-0.599-2.101-2.698-1.201-4.201c0.903-1.497,2.703-2.1,4.201-1.2l0,0l0.904,0.603l1.197,0.598l0.903,0.302l0.9,0.599   l1.201,0.603h0.301c1.498,0.899,2.101,2.698,1.498,4.2c-0.9,1.502-2.703,2.402-4.201,1.502l-0.602-0.301l-0.9-0.302l-0.899-0.598   l-1.201-0.603l-0.899-0.599L166.565,423.163L166.565,423.163z M189.674,433.67c-1.799-0.599-2.402-2.402-1.799-3.904   c0.598-1.799,2.401-2.397,3.899-1.799h0.301l0.9,0.301l1.201,0.302l0.899,0.598l1.201,0.302l0.903,0.297h0.297   c1.803,0.603,2.699,2.401,2.101,4.205c-0.599,1.498-2.398,2.397-3.904,1.799h-0.297l-1.201-0.598l-1.201-0.302l-0.9-0.301   l-1.201-0.302L189.674,433.67L189.674,433.67z M313.623,436.67c-1.502,0.602-3.301-0.302-3.903-1.8   c-0.599-1.799,0.301-3.603,2.101-4.2l0.903-0.302l0.899-0.301l1.201-0.302l1.201-0.297l0.899-0.302l0.599-0.301   c1.502-0.599,3.301,0.301,3.903,1.804c0.599,1.799-0.301,3.598-1.804,3.899l-0.598,0.301l-1.201,0.302l-0.899,0.598l-1.201,0.302   l-1.2,0.297L313.623,436.67z M337.033,427.368c-1.502,0.899-3.301,0.297-3.903-1.502c-0.899-1.502-0.302-3.302,1.502-3.899l0,0   l0.899-0.603l0.899-0.599l1.201-0.301l0.899-0.603l0.899-0.599h0.603c1.498-0.899,3.302-0.302,4.201,1.201   c0.599,1.502,0,3.301-1.502,4.2l-0.297,0.302l-1.201,0.598l-0.899,0.302l-1.201,0.603l-0.903,0.599L337.033,427.368   L337.033,427.368z M359.238,415.063c-1.498,0.899-3.301,0.599-4.2-0.899c-1.201-1.201-0.599-3.301,0.899-4.205l0.903-0.599   l0.899-0.598l0.9-0.603l0.899-0.599l0.899-0.603l0.301-0.301c1.502-1.197,3.603-0.899,4.502,0.603c0.9,1.502,0.599,3.301-0.899,4.2   l-0.301,0.603l-1.201,0.599l-0.899,0.599l-0.899,0.603l-0.899,0.598L359.238,415.063z M379.348,400.055   c-1.201,1.2-3.302,0.903-4.201-0.298c-1.201-1.502-1.201-3.301,0.301-4.502l0.599-0.603l0.899-0.598l0.603-0.9l0.899-0.602l0.9-0.9   l0.603-0.301c1.2-1.201,3.301-1.201,4.502,0c0.899,1.201,0.899,3.301-0.302,4.502l-0.603,0.603l-0.899,0.599l-0.899,0.899   l-0.899,0.603l-0.899,0.899L379.348,400.055z M397.355,382.348c-0.899,1.2-3,1.502-4.201,0.301   c-1.502-1.201-1.502-3.301-0.301-4.502l0.301-0.297l0.9-0.904l0.598-0.899l0.603-0.899l0.9-0.599l0.598-0.903   c1.201-1.498,3.004-1.498,4.502-0.599c1.201,1.201,1.503,3.302,0.302,4.502l-0.599,0.899l-0.903,0.9l-0.599,0.899l-0.899,0.603   l-0.603,0.899L397.355,382.348z M412.962,362.54c-0.899,1.2-3.004,1.803-4.2,0.603c-1.502-0.9-1.804-2.703-0.904-4.201l0.302-0.301   l0.603-0.9l0.598-0.899l0.599-0.903l0.603-0.899l0.599-1.201l0,0c0.903-1.498,2.703-1.799,4.205-0.899   c1.498,0.899,2.101,2.703,1.196,4.2l-0.297,0.302l-0.603,0.899l-0.599,0.899l-0.603,0.904l-0.598,0.899l-0.603,0.899   L412.962,362.54z M425.866,340.632c-0.899,1.502-2.703,2.101-4.201,1.502c-1.502-0.899-2.101-2.703-1.502-4.201l0.302-0.301   l0.301-1.201l0.599-0.899l0.301-0.899l0.599-1.201l0.603-0.899v-0.301c0.599-1.502,2.401-2.101,4.201-1.502   c1.502,0.899,2.1,2.702,1.502,4.2l-0.302,0.302l-0.301,0.899l-0.599,1.2l-0.603,0.9l-0.297,1.2l-0.603,0.904V340.632z    M435.469,317.222c-0.599,1.804-2.397,2.703-3.899,2.104c-1.502-0.603-2.402-2.401-2.101-3.903l0.297-0.599l0.302-0.899   l0.301-1.201l0.302-0.903l0.598-1.201l0.302-1.196l0,0c0.301-1.502,2.101-2.402,3.899-2.104c1.502,0.603,2.401,2.401,2.101,3.903   h-0.298l-0.301,1.201l-0.301,1.2l-0.302,0.9l-0.297,1.2l-0.302,1.201L435.469,317.222z M442.071,292.916   c-0.297,1.8-2.101,2.699-3.599,2.397c-1.803-0.297-3.004-1.799-2.703-3.598l0.302-0.904l0.297-1.196v-1.201l0.302-0.903   l0.301-1.201v-0.599c0.301-1.799,1.799-2.698,3.603-2.698c1.799,0.297,2.699,2.101,2.699,3.599l-0.298,0.602v1.201l-0.301,1.201   l-0.302,1.196l-0.301,1.201V292.916z M445.372,268.004c-0.297,1.502-1.799,3-3.301,2.703c-1.8,0-3-1.502-3-3.301v-0.603v-1.201   v-1.201l0.301-1.2v-1.197v-0.603c0-1.799,1.498-3,3-3c1.8,0,3.302,1.498,3,3.302v0.599v1.2v1.201v1.2v1.201V268.004z    M445.075,242.494c0.297,1.799-1.201,3.301-2.703,3.301c-1.799,0.301-3.301-0.899-3.301-2.699l-0.302-1.201v-1.201v-0.903   l-0.297-1.197v-1.201v-0.301c-0.301-1.799,0.899-3.301,2.699-3.603c1.803,0,3.301,1.205,3.301,2.703v0.603l0.302,1.197v1.201   l0.301,1.201v1.201V242.494z M441.774,217.586c0.297,1.799-0.904,3.301-2.402,3.603c-1.803,0.297-3.301-0.603-3.903-2.402v-0.904   l-0.297-0.896l-0.302-1.205l-0.301-1.196v-0.904l-0.302-0.9c-0.297-1.502,0.603-3.301,2.402-3.602   c1.502-0.301,3.301,0.602,3.602,2.1l0.302,0.904l0.297,1.197v0.904l0.302,1.197l0.301,1.205L441.774,217.586z M434.87,193.276   c0.599,1.502-0.301,3.301-1.799,3.903c-1.502,0.599-3.306-0.301-3.904-1.803l-0.301-0.301l-0.297-0.899l-0.302-1.201l-0.301-0.9   l-0.599-1.201l-0.301-0.899v-0.301c-0.599-1.799,0-3.599,1.502-4.201c1.799-0.603,3.598,0.301,4.2,1.799v0.301l0.599,1.201   l0.302,0.9l0.301,1.201l0.599,1.201l0.301,0.9V193.276z M424.967,170.167c0.899,1.498,0.301,3.301-1.201,4.201   c-1.799,0.603-3.603,0-4.201-1.498l-0.301-0.301l-0.302-0.903l-0.598-0.9l-0.603-1.201l-0.599-0.9l-0.301-0.899l-0.302-0.301   c-0.899-1.498-0.297-3.301,1.201-4.201c1.502-0.9,3.301-0.301,4.205,1.201l0.297,0.297l0.301,0.903l0.599,1.201l0.603,0.899   l0.599,0.899l0.603,1.201V170.167z M412.063,148.259c0.899,1.498,0.599,3.599-0.903,4.502c-1.201,0.9-3.302,0.599-4.201-0.903l0,0   l-0.899-0.9l-0.599-0.899l-0.603-0.899l-0.598-0.9l-0.603-0.904l-0.302-0.301c-0.899-1.498-0.598-3.297,0.603-4.498   c1.502-0.9,3.302-0.599,4.502,0.598l0.302,0.301l0.598,0.899l0.599,1.201l0.603,0.899l0.599,0.899L412.063,148.259L412.063,148.259   z M396.456,128.45c0.899,1.5,0.899,3.299-0.301,4.504c-1.201,1.197-3.302,1.197-4.503-0.301l-0.598-0.603l-0.904-0.9l-0.598-0.899   l-0.9-0.601l-0.603-0.899l-0.598-0.301c-1.201-1.201-1.201-3.301,0-4.502c1.502-1.199,3.301-1.199,4.502,0l0.599,0.601l0.602,0.6   l0.9,0.902l0.899,0.899l0.603,0.9L396.456,128.45z M378.146,111.044c1.201,1.201,1.502,3,0.301,4.502c-0.899,1.199-3,1.5-4.2,0.299   l-0.603-0.601l-0.899-0.6l-0.9-0.601l-0.899-0.899l-0.899-0.601l-0.603-0.601c-1.498-0.899-1.498-3.002-0.599-4.201   c1.201-1.502,3-1.801,4.503-0.601l0.598,0.601l0.9,0.601l0.899,0.598l0.903,0.902l0.899,0.6L378.146,111.044z M357.74,96.038   c1.498,0.899,1.8,3,0.9,4.502c-0.9,1.201-2.703,1.799-4.201,0.9l-0.603-0.299l-0.899-0.601l-0.899-0.6l-0.9-0.601l-0.899-0.601   l-0.903-0.6c-1.498-0.9-2.101-2.701-1.201-4.201c0.904-1.502,2.703-2.1,4.205-1.201l0.899,0.601l1.201,0.6l0.899,0.601l0.899,0.601   l0.899,0.598L357.74,96.038z M335.531,84.033c1.799,0.601,2.401,2.4,1.502,4.201c-0.603,1.5-2.401,2.101-3.903,1.5l-0.599-0.299   l-0.903-0.6l-1.197-0.299l-0.903-0.601l-1.201-0.301l-0.899-0.6c-1.498-0.601-2.401-2.4-1.498-3.902   c0.599-1.5,2.397-2.399,3.899-1.799l1.201,0.601l0.899,0.299l1.201,0.6l0.899,0.299l1.201,0.601L335.531,84.033z M312.121,75.029   c1.502,0.299,2.402,2.101,2.101,3.902c-0.599,1.5-2.401,2.401-3.899,1.801h-0.899l-0.904-0.301l-1.2-0.299l-1.197-0.301   l-0.903-0.299l-0.899-0.301c-1.498-0.598-2.699-2.1-2.101-3.901c0.301-1.5,2.101-2.701,3.903-2.101l0.599,0.301l1.201,0.299   l1.2,0.301l0.899,0.299l1.201,0.301L312.121,75.029z" fill="#4E5A62"/><path d="M262.004,37.814l2.397,0.6l2.703-4.502c0.302-0.598,1.201-0.899,1.8-0.598l7.803,4.5   c0.899,0.301,0.899,1.201,0.603,2.103l-2.703,4.502l2.101,1.799l4.502-2.701c0.603-0.299,1.502,0,1.804,0.601l4.498,7.803   c0.301,0.601,0.301,1.5-0.599,1.801l-4.201,2.701l0.9,2.4h4.803c0.899,0,1.498,0.601,1.498,1.502v9.002   c0,0.902-0.599,1.502-1.498,1.502h-4.502l-0.301,0.899l4.2,1.801c0.603,0.299,0.899,1.201,0.603,2.101l-3.903,8.103   c-0.302,0.6-1.201,0.901-1.8,0.6l-3.903-1.801l-6.899,8.705c0,0,0,0,0,0.299v2.101c1.196,0.301,2.397,1.801,2.397,3.301   c0,1.502-1.201,3.002-2.397,3.301v1.801c1.498,0.601,2.397,2.101,2.397,3.601c0,1.502-0.899,3.002-2.397,3.301v1.201   c1.498,0.601,2.397,2.103,2.397,3.603c0,1.801-1.498,3.301-3.302,3.601c-0.899,3.002-3.301,5.404-6.603,5.404h-17.104   c-3.301,0-5.703-2.402-6.903-5.404c-1.498-0.601-2.703-1.799-2.703-3.601c0-1.201,0.904-2.701,2.101-3.301v-1.502   c-1.197-0.598-2.101-1.799-2.101-3.301c0-1.199,0.904-2.701,2.101-3.301v-2.101c-1.197-0.6-2.101-1.799-2.101-3.301   c0-1.201,0.904-2.399,2.101-3.301v-2.101c-0.297-0.299-0.297-0.601-0.297-0.9l-5.101-6.603l-3.602,2.101   c-0.599,0.601-1.502,0.299-1.804-0.301l-4.502-8.103c-0.297-0.6-0.297-1.5,0.603-1.801l3.899-2.399l-0.896-2.701h-4.502   c-0.904,0-1.506-0.601-1.506-1.502v-9.002c0-0.901,0.602-1.502,1.506-1.502h4.799l0.301-0.601l-4.502-2.1   c-0.599-0.299-0.9-1.201-0.599-1.799l3.9-8.104c0.301-0.9,1.201-1.201,1.799-0.9l4.803,2.402l1.799-2.103l-3-4.201   c-0.598-0.601-0.301-1.5,0.297-1.801l7.506-5.103c0.603-0.601,1.498-0.299,2.101,0.301l3,4.502L250,37.814v-5.402   c0-0.601,0.598-1.5,1.498-1.5h9.004c0.899,0,1.502,0.899,1.502,1.5V37.814z M270.406,94.837h0.301c1.201,0,2.101,0.899,2.101,2.1   l0,0c0,1.201-0.899,2.101-2.101,2.101h-0.301v4.203h0.301c1.201,0,2.101,1.201,2.101,2.399l0,0c0,1.201-0.899,2.103-2.101,2.103   h-0.301v3.601h0.301c1.201,0,2.101,1.201,2.101,2.401l0,0c0,1.201-0.899,2.101-2.101,2.101h-0.603   c-0.899,3.301-3,5.402-5.703,5.402l-17.104,0.301c-2.703,0-4.803-2.401-5.703-5.401h-0.297c-1.205,0-2.104-1.201-2.104-2.402l0,0   c0-1.201,0.9-2.1,1.803-2.1v-3.902c-0.903,0-1.803-0.902-1.803-2.103l0,0c0-1.199,0.9-2.101,1.803-2.101v-4.201   c-0.903-0.301-1.803-1.201-1.803-2.402l0,0c0-1.201,0.9-2.1,1.803-2.1v-3.301c0-0.299,0-0.299,0-0.601l0,0h20.406h-19.807   l-6.603-8.703l-4.799,2.701l-4.502-7.803l4.799-2.701l-1.201-5.103h-5.699v-9.002h6l0.603-2.701l-5.406-2.703l3.904-8.103   l5.703,2.701l3.297-3.601l-3.599-5.402l7.502-5.103l3.603,5.402l6.301-1.801v-6.603h9.004v6.603l4.502,1.201l3.302-5.703   l7.803,4.502l-3.301,5.703l3.603,3.301l5.401-3.301l4.498,7.803l-5.101,3l1.201,4.803h6.004v9.002h-5.703l-0.603,3.002l5.104,2.401   l-3.903,8.402l-5.101-2.399l-7.803,10.203c0,0.301,0,0,0,0.601V94.837z" fill="#2A2D40"/><path d="M264.104,406.657c0.599,0,0.899,0,1.498,0.301l3.302-6c0.301-0.603,1.2-0.903,1.803-0.603l11.703,6.904   c0.899,0.301,0.899,1.2,0.603,1.799l-3.306,6.004c0.302,0.302,0.603,0.599,1.201,0.899l5.703-3.301   c0.602-0.302,1.502-0.302,1.803,0.599l6.899,11.707c0.302,0.598,0,1.502-0.598,1.799l-5.402,3.302c0,0.301,0.302,0.899,0.302,1.502   h6.301c0.899,0,1.498,0.598,1.498,1.502v13.502c0,0.603-0.599,1.201-1.498,1.201h-4.2l3.899,1.803   c0.603,0.298,0.899,1.197,0.603,2.101l-6.005,12.004c-0.301,0.599-1.2,0.9-1.799,0.599l-5.104-2.401   c-0.297,0.603-0.599,1.2-1.201,1.502l3.005,4.803c0.598,0.599,0.297,1.498-0.302,1.8l-11.104,7.804   c-0.603,0.301-1.502,0.301-2.101-0.599l-3-4.205c-1.2,0.603-3.004,0.899-4.502,1.502v5.101c0,0.903-0.603,1.502-1.502,1.502   h-13.205c-0.899,0-1.498-0.599-1.498-1.502v-5.101c-0.904-0.301-1.506-0.603-2.104-0.603l-2.699,4.502   c-0.301,0.603-1.201,0.904-1.799,0.603l-11.707-6.903c-0.899-0.302-0.899-1.201-0.603-1.8l2.703-4.803   c-0.603-0.599-0.899-0.899-1.498-1.502l-4.803,2.702c-0.603,0.302-1.502,0.302-1.799-0.598l-6.904-11.707   c-0.301-0.599,0-1.498,0.599-1.8l5.1-3c-0.301-0.603-0.301-1.2-0.598-1.803h-5.703c-0.899,0-1.498-0.599-1.498-1.201v-13.502   c0-0.904,0.598-1.502,1.498-1.502h4.201l-3.9-1.804c-0.603-0.297-0.903-1.196-0.603-1.799l6.004-12.306   c0.297-0.599,1.201-0.899,1.803-0.599l6,2.699c0.301-0.297,0.603-0.599,0.9-0.899l-3.603-5.703c-0.599-0.599-0.301-1.498,0.301-1.8   l11.104-7.502c0.603-0.603,1.498-0.301,2.101,0.302l3.602,5.401c1.201-0.301,2.699-0.603,3.904-0.903v-6.9   c0-0.903,0.599-1.502,1.498-1.502h13.205c0.899,0,1.502,0.599,1.502,1.502V406.657z M262.603,407.561   c1.201,0.297,2.401,0.599,3.603,0.899l3.899-6.603l11.707,6.603l-3.903,6.603c0.899,0.899,1.799,1.8,2.703,2.699l6.602-3.899   l6.603,11.702l-6.305,3.603c0.301,1.201,0.903,2.402,1.2,3.904h7.205v13.502h-6.903c-0.302,0.301-0.302,0.899-0.302,1.201   l6.306,3.301l-6.004,12.004l-6-3c-0.904,1.201-1.804,2.402-2.703,3.302l3.899,5.401l-11.401,7.804l-3.603-5.401   c-2.101,0.899-4.201,1.502-6.603,2.1v6.302h-13.205v-6.302c-1.498-0.301-3.004-0.598-4.201-1.2l-3.301,5.703l-11.703-6.904   l3.297-5.703c-0.9-0.899-2.101-2.101-3-3l-5.703,3.302l-6.603-11.703l6.004-3.302c-0.599-1.502-0.9-2.702-1.201-3.903h-6.904   v-13.502h7.205c0.301-0.603,0.301-0.904,0.301-1.502l-6.603-3l6-12.306l6.904,3.301c0.599-0.899,1.498-1.803,2.402-2.702   l-4.502-6.302l11.402-7.803l4.205,6.602c2.101-0.598,3.899-1.2,6-1.799v-7.804h13.205V407.561z" fill="#2A2D40"/><g><path d="M262.603,407.561c1.201,0.297,2.401,0.599,3.603,0.899l3.899-6.603l11.707,6.603l-3.903,6.603    c0.899,0.899,1.799,1.8,2.703,2.699l6.602-3.899l6.603,11.702l-6.305,3.603c0.301,1.201,0.903,2.402,1.2,3.904h7.205v13.502    h-6.903c-0.302,0.301-0.302,0.899-0.302,1.201l6.306,3.301l-6.004,12.004l-6-3c-0.904,1.201-1.804,2.402-2.703,3.302l3.899,5.401    l-11.401,7.804l-3.603-5.401c-2.101,0.899-4.201,1.502-6.603,2.1v6.302h-13.205v-6.302c-1.498-0.301-3.004-0.598-4.201-1.2    l-3.301,5.703l-11.703-6.904l3.297-5.703c-0.9-0.899-2.101-2.101-3-3l-5.703,3.302l-6.603-11.703l6.004-3.302    c-0.599-1.502-0.9-2.702-1.201-3.903h-6.904v-13.502h7.205c0.301-0.603,0.301-0.904,0.301-1.502l-6.603-3l6-12.306l6.904,3.301    c0.599-0.899,1.498-1.803,2.402-2.702l-4.502-6.302l11.402-7.803l4.205,6.602c2.101-0.598,3.899-1.2,6-1.799v-7.804h13.205    V407.561z" fill="#737373"/><path d="M261.401,408.762c1.8,0.297,3.603,0.899,5.402,1.498l3.903-6.603l9.302,5.401l-3.9,6.306    c1.498,1.196,3,2.698,4.201,4.2l6.302-3.903l5.401,9.306l-6.302,3.603c0.9,1.799,1.502,3.899,1.8,5.698h7.205v10.808h-6.904    c-0.301,1.201-0.599,2.397-0.899,3.599l6.302,3.004l-4.8,9.603l-6.004-2.703c-0.899,1.502-2.401,3.302-3.899,4.804l3.598,5.101    l-8.702,6.004l-3.603-5.101c-2.699,1.201-5.402,2.101-8.402,2.699v6.301h-10.803v-6.301c-2.1-0.302-4.205-0.899-6.004-1.8    l-3.297,5.402l-9.305-5.402l3.301-5.401c-1.803-1.201-3-2.703-4.502-4.502l-5.402,3.301l-5.406-9.305l5.707-3.302    c-0.603-2.101-1.205-3.899-1.502-6h-6.904v-10.808h7.201c0.301-1.196,0.603-2.397,0.904-3.301l-6.603-3.302l4.803-9.603    l6.603,3.302c1.197-1.502,2.397-3,3.899-4.201l-4.201-6.301l8.703-6.005l4.502,6.302c2.402-1.201,4.803-1.8,7.502-2.397v-7.507    h10.803V408.762z" fill="#B3B3B3"/><path d="M256,426.469c7.201,0,13.205,6,13.205,13.205c0,7.2-6.004,13.205-13.205,13.205    c-7.205,0-13.205-6.005-13.205-13.205C242.795,432.469,248.795,426.469,256,426.469z" fill="#737373"/><path d="M267.406,433.071c1.2,2.101,1.799,4.2,1.799,6.603c0,7.2-6.004,13.205-13.205,13.205    c-3.301,0-6.301-1.201-8.703-3.302c-1.201-2.104-1.799-4.205-1.799-6.603c0-7.205,6-13.209,13.205-13.209    C262.004,429.766,265.004,430.967,267.406,433.071z" fill="#808080"/></g><g><polygon fill="#FFCA28" points="260.502,39.015 265.004,40.215 268.306,34.513 276.108,39.015 272.808,44.718 276.41,48.019     281.812,44.718 286.31,52.521 281.209,55.521 282.41,60.324 288.414,60.324 288.414,69.326 282.711,69.326 282.108,72.329     287.213,74.73 283.31,83.132 278.209,80.732 270.406,90.935 241.594,90.935 234.992,82.232 230.192,84.933 225.69,77.13     230.49,74.429 229.289,69.326 223.59,69.326 223.59,60.324 229.59,60.324 230.192,57.624 224.787,54.92 228.69,46.818     234.393,49.519 237.69,45.918 234.092,40.517 241.594,35.414 245.197,40.816 251.498,39.015 251.498,32.412 260.502,32.412   "/><path d="M256,53.722c6.004,0,11.104,5.101,11.104,11.103c0,6.004-5.101,11.104-11.104,11.104    c-6,0-11.104-5.1-11.104-11.104C244.896,58.822,250,53.722,256,53.722z" fill="#EBAA4B"/><path d="M265.603,59.423c0.899,1.502,1.502,3.301,1.502,5.401c0,6.004-5.101,11.104-11.104,11.104    c-2.703,0-5.402-1.199-7.205-3c-0.896-1.502-1.498-3.301-1.498-5.401c0-6.004,4.804-11.105,11.104-11.105    C261.101,56.422,263.502,57.624,265.603,59.423z" fill="#FFB74D"/><path d="M270.406,90.935c0,0.301,0,0,0,0.601v21.609c0,4.502-2.703,8.103-6.005,8.103l-17.104,0.301    c-3.301,0-6-3.901-6.301-8.403V91.536c0-0.299,0-0.299,0-0.601l0,0H270.406z" fill="#BDBFC1"/><path d="M241.061,94.786l29.83-0.09c1.063-0.004,1.929,0.991,1.929,2.221l0,0c0.005,1.229-0.854,2.229-1.921,2.232    l-29.83,0.09c-1.058,0.004-1.925-0.991-1.929-2.221l0,0C239.14,95.79,239.999,94.79,241.061,94.786z" fill="#A9ABAE"/><path d="M241.085,103.448l29.825-0.092c1.063-0.002,1.93,0.991,1.93,2.221l0,0c0.004,1.231-0.854,2.23-1.917,2.233    l-29.83,0.091c-1.066,0.002-1.929-0.991-1.929-2.221l0,0C239.16,104.45,240.019,103.45,241.085,103.448z" fill="#A9ABAE"/><path d="M241.102,111.565l29.829-0.089c1.063-0.004,1.926,0.991,1.93,2.22l0,0c0,1.229-0.858,2.229-1.921,2.233    l-29.83,0.089c-1.063,0.004-1.93-0.991-1.93-2.22l0,0C239.18,112.568,240.035,111.569,241.102,111.565z" fill="#A9ABAE"/></g><path d="M398.255,340.632l-114.644-77.729l77.431-77.129c0-0.301,0.297-0.301,0.297-0.301l16.511-31.812   c0.297-0.9,0.297-1.502-0.302-2.104c-0.603-0.599-1.2-0.599-1.803-0.297l-7.502,3.904l-23.708,12c-0.301,0-0.301,0.301-0.301,0.301   l-81.331,81.331l-56.422-38.41l26.708-39.318c3.305-5.101,2.104-12.004-2.996-15.305l-34.217-23.41   c-5.101-3.301-12-2.101-15.306,3.004l-26.711,39.314l-10.201-6.904c-0.904-0.301-1.799-0.301-2.402,0.603l-14.406,21.004   c-0.301,0.903-0.301,1.803,0.599,2.401l10.205,6.904l-22.807,33.615c-3.603,4.799-2.101,11.703,2.703,15.004l34.511,23.41   c5.104,3.599,11.707,2.101,15.305-2.703l22.812-33.611l51.917,35.113l-90.636,90.637c-0.297,0.297-0.599,0.297-0.599,0.598   c-0.297,0-0.297,0.302-0.598,0.599c-3.9,4.804-3.305,11.104,0.598,15.908c1.803,1.799,3.904,3,6.306,3.903   c4.201,1.197,8.703-0.301,11.703-3.301l93.937-93.938l119.146,80.732c0.9,0.598,1.8,0.297,2.402-0.302l14.401-21.31   C399.155,342.436,399.155,341.234,398.255,340.632z M382.95,363.143l-120.348-81.632l-82.234,82.229l-5.397,5.402l-7.205,7.506   c-9.606,9.603-24.008-4.502-15.908-14.406l0.301-0.301c0.301-0.301,0.301-0.301,0.602-0.603l7.201-7.201l5.402-5.401l79.23-79.531   l-54.92-37.213l-23.708,34.812c-2.703,4.2-8.703,5.401-12.904,2.702l-34.217-23.41c-4.201-3-5.402-8.703-2.699-12.908   l23.707-35.113l-11.402-7.799l7.201-10.506l7.201-10.506l11.406,7.808l27.912-40.82c2.699-4.201,8.703-5.399,12.904-2.401   l34.213,23.414c4.201,2.699,5.406,8.401,2.402,12.603l-27.611,41.117l58.824,39.912l82.532-82.23l23.707-12.004l7.205-3.9   l-15.306,29.41l-1.201,2.398l-78.632,78.632l116.146,78.933L382.95,363.143z" fill="#2A2D40"/></g></svg>